<svg width="76" height="76" viewBox="0 0 76 76" fill="none" xmlns="http://www.w3.org/2000/svg">
<g clip-path="url(#clip0_81_94)">
<path d="M38.71 42.29L38.56 42.17C38.5043 42.1322 38.4437 42.1019 38.38 42.08L38.2 42C38.0378 41.9661 37.8698 41.973 37.7109 42.0201C37.5521 42.0673 37.4074 42.1531 37.29 42.27C37.2017 42.3672 37.1306 42.4788 37.08 42.6C37.0043 42.7822 36.9842 42.9827 37.0223 43.1763C37.0603 43.3699 37.1547 43.5479 37.2937 43.688C37.4327 43.828 37.61 43.9238 37.8033 43.9633C37.9966 44.0028 38.1972 43.9843 38.38 43.91C38.4995 43.852 38.6105 43.778 38.71 43.69C38.8488 43.5494 38.9428 43.3708 38.9801 43.1768C39.0175 42.9828 38.9966 42.7821 38.92 42.6C38.8701 42.4844 38.7989 42.3792 38.71 42.29V42.29ZM42 28H34C33.2044 28 32.4413 28.3161 31.8787 28.8787C31.3161 29.4413 31 30.2044 31 31V45C31 45.7956 31.3161 46.5587 31.8787 47.1213C32.4413 47.6839 33.2044 48 34 48H42C42.7956 48 43.5587 47.6839 44.1213 47.1213C44.6839 46.5587 45 45.7956 45 45V31C45 30.2044 44.6839 29.4413 44.1213 28.8787C43.5587 28.3161 42.7956 28 42 28ZM43 45C43 45.2652 42.8946 45.5196 42.7071 45.7071C42.5196 45.8946 42.2652 46 42 46H34C33.7348 46 33.4804 45.8946 33.2929 45.7071C33.1054 45.5196 33 45.2652 33 45V31C33 30.7348 33.1054 30.4804 33.2929 30.2929C33.4804 30.1054 33.7348 30 34 30H42C42.2652 30 42.5196 30.1054 42.7071 30.2929C42.8946 30.4804 43 30.7348 43 31V45Z" fill="#FE00D0"/>
</g>
<defs>
<clipPath id="clip0_81_94">
<rect width="75.5938" height="75.5938" fill="white"/>
</clipPath>
</defs>
</svg>
