<svg width="76" height="76" viewBox="0 0 76 76" fill="none" xmlns="http://www.w3.org/2000/svg">
<path d="M36 31C35.8022 31 35.6089 31.0586 35.4444 31.1685C35.28 31.2784 35.1518 31.4346 35.0761 31.6173C35.0004 31.8 34.9806 32.0011 35.0192 32.1951C35.0578 32.3891 35.153 32.5673 35.2929 32.7071C35.4327 32.847 35.6109 32.9422 35.8049 32.9808C35.9989 33.0194 36.2 32.9996 36.3827 32.9239C36.5654 32.8482 36.7216 32.72 36.8315 32.5556C36.9414 32.3911 37 32.1978 37 32C37 31.7348 36.8946 31.4804 36.7071 31.2929C36.5196 31.1054 36.2652 31 36 31ZM32 31C31.8022 31 31.6089 31.0586 31.4444 31.1685C31.28 31.2784 31.1518 31.4346 31.0761 31.6173C31.0004 31.8 30.9806 32.0011 31.0192 32.1951C31.0578 32.3891 31.153 32.5673 31.2929 32.7071C31.4327 32.847 31.6109 32.9422 31.8049 32.9808C31.9989 33.0194 32.2 32.9996 32.3827 32.9239C32.5654 32.8482 32.7216 32.72 32.8315 32.5556C32.9414 32.3911 33 32.1978 33 32C33 31.7348 32.8946 31.4804 32.7071 31.2929C32.5196 31.1054 32.2652 31 32 31ZM40 31C39.8022 31 39.6089 31.0586 39.4444 31.1685C39.28 31.2784 39.1518 31.4346 39.0761 31.6173C39.0004 31.8 38.9806 32.0011 39.0192 32.1951C39.0578 32.3891 39.153 32.5673 39.2929 32.7071C39.4327 32.847 39.6109 32.9422 39.8049 32.9808C39.9989 33.0194 40.2 32.9996 40.3827 32.9239C40.5654 32.8482 40.7216 32.72 40.8315 32.5556C40.9414 32.3911 41 32.1978 41 32C41 31.7348 40.8946 31.4804 40.7071 31.2929C40.5196 31.1054 40.2652 31 40 31ZM46 27H30C29.2044 27 28.4413 27.3161 27.8787 27.8787C27.3161 28.4413 27 29.2044 27 30V46C27 46.7956 27.3161 47.5587 27.8787 48.1213C28.4413 48.6839 29.2044 49 30 49H46C46.7956 49 47.5587 48.6839 48.1213 48.1213C48.6839 47.5587 49 46.7956 49 46V30C49 29.2044 48.6839 28.4413 48.1213 27.8787C47.5587 27.3161 46.7956 27 46 27V27ZM47 46C47 46.2652 46.8946 46.5196 46.7071 46.7071C46.5196 46.8946 46.2652 47 46 47H30C29.7348 47 29.4804 46.8946 29.2929 46.7071C29.1054 46.5196 29 46.2652 29 46V37H47V46ZM47 35H29V30C29 29.7348 29.1054 29.4804 29.2929 29.2929C29.4804 29.1054 29.7348 29 30 29H46C46.2652 29 46.5196 29.1054 46.7071 29.2929C46.8946 29.4804 47 29.7348 47 30V35Z" fill="#EBEF55"/>
</svg>
