<svg width="76" height="76" viewBox="0 0 76 76" fill="none" xmlns="http://www.w3.org/2000/svg">
<g clip-path="url(#clip0_81_85)">
<path d="M46 39.18V37C46 34.8783 45.1571 32.8434 43.6569 31.3431C42.1566 29.8429 40.1217 29 38 29C35.8783 29 33.8434 29.8429 32.3431 31.3431C30.8429 32.8434 30 34.8783 30 37V39.18C29.4165 39.3863 28.911 39.7681 28.5529 40.2729C28.1949 40.7778 28.0017 41.3811 28 42V44C28 44.7956 28.3161 45.5587 28.8787 46.1213C29.4413 46.6839 30.2044 47 31 47H34C34.2652 47 34.5196 46.8946 34.7071 46.7071C34.8946 46.5196 35 46.2652 35 46V40C35 39.7348 34.8946 39.4804 34.7071 39.2929C34.5196 39.1054 34.2652 39 34 39H32V37C32 35.4087 32.6321 33.8826 33.7574 32.7574C34.8826 31.6321 36.4087 31 38 31C39.5913 31 41.1174 31.6321 42.2426 32.7574C43.3679 33.8826 44 35.4087 44 37V39H42C41.7348 39 41.4804 39.1054 41.2929 39.2929C41.1054 39.4804 41 39.7348 41 40V46C41 46.2652 41.1054 46.5196 41.2929 46.7071C41.4804 46.8946 41.7348 47 42 47H45C45.7956 47 46.5587 46.6839 47.1213 46.1213C47.6839 45.5587 48 44.7956 48 44V42C47.9983 41.3811 47.8051 40.7778 47.4471 40.2729C47.089 39.7681 46.5835 39.3863 46 39.18ZM33 41V45H31C30.7348 45 30.4804 44.8946 30.2929 44.7071C30.1054 44.5196 30 44.2652 30 44V42C30 41.7348 30.1054 41.4804 30.2929 41.2929C30.4804 41.1054 30.7348 41 31 41H33ZM46 44C46 44.2652 45.8946 44.5196 45.7071 44.7071C45.5196 44.8946 45.2652 45 45 45H43V41H45C45.2652 41 45.5196 41.1054 45.7071 41.2929C45.8946 41.4804 46 41.7348 46 42V44Z" fill="#01BEE3"/>
</g>
<defs>
<clipPath id="clip0_81_85">
<rect width="75.5938" height="75.5938" fill="white"/>
</clipPath>
</defs>
</svg>
