<svg width="76" height="76" viewBox="0 0 76 76" fill="none" xmlns="http://www.w3.org/2000/svg">
<g clip-path="url(#clip0_81_68)">
<path d="M31 38C31 37.7348 30.8946 37.4804 30.7071 37.2929C30.5196 37.1054 30.2652 37 30 37H29C28.7348 37 28.4804 37.1054 28.2929 37.2929C28.1054 37.4804 28 37.7348 28 38C28 38.2652 28.1054 38.5196 28.2929 38.7071C28.4804 38.8946 28.7348 39 29 39H30C30.2652 39 30.5196 38.8946 30.7071 38.7071C30.8946 38.5196 31 38.2652 31 38ZM31.64 43L30.93 43.71C30.7437 43.8974 30.6392 44.1508 30.6392 44.415C30.6392 44.6792 30.7437 44.9326 30.93 45.12C31.1174 45.3063 31.3708 45.4108 31.635 45.4108C31.8992 45.4108 32.1526 45.3063 32.34 45.12L33.05 44.41C33.2138 44.2187 33.2994 43.9726 33.2897 43.7209C33.28 43.4693 33.1757 43.2305 32.9976 43.0524C32.8195 42.8743 32.5807 42.77 32.3291 42.7603C32.0774 42.7506 31.8313 42.8362 31.64 43V43ZM38 31C38.2652 31 38.5196 30.8946 38.7071 30.7071C38.8946 30.5196 39 30.2652 39 30V29C39 28.7348 38.8946 28.4804 38.7071 28.2929C38.5196 28.1054 38.2652 28 38 28C37.7348 28 37.4804 28.1054 37.2929 28.2929C37.1054 28.4804 37 28.7348 37 29V30C37 30.2652 37.1054 30.5196 37.2929 30.7071C37.4804 30.8946 37.7348 31 38 31ZM43.66 33.34C43.9223 33.3389 44.1737 33.2347 44.36 33.05L45.07 32.34C45.1747 32.2504 45.2597 32.14 45.3197 32.016C45.3797 31.8919 45.4135 31.7568 45.4188 31.6191C45.4241 31.4813 45.4009 31.344 45.3506 31.2157C45.3004 31.0874 45.2241 30.9708 45.1266 30.8733C45.0292 30.7759 44.9126 30.6996 44.7843 30.6494C44.656 30.5991 44.5187 30.5759 44.3809 30.5812C44.2432 30.5865 44.1081 30.6203 43.984 30.6803C43.86 30.7403 43.7496 30.8253 43.66 30.93L43 31.64C42.8137 31.8274 42.7092 32.0808 42.7092 32.345C42.7092 32.6092 42.8137 32.8626 43 33.05C43.1763 33.2254 43.4116 33.3288 43.66 33.34V33.34ZM31.66 33.05C31.8463 33.2347 32.0977 33.3389 32.36 33.34C32.4916 33.3408 32.6221 33.3155 32.7439 33.2658C32.8657 33.216 32.9766 33.1427 33.07 33.05C33.2563 32.8626 33.3608 32.6092 33.3608 32.345C33.3608 32.0808 33.2563 31.8274 33.07 31.64L32.36 30.93C32.2674 30.8361 32.1572 30.7614 32.0358 30.71C31.9143 30.6587 31.7839 30.6318 31.6521 30.6309C31.5202 30.63 31.3895 30.655 31.2673 30.7046C31.1451 30.7542 31.0339 30.8274 30.94 30.92C30.8461 31.0126 30.7714 31.1228 30.72 31.2442C30.6687 31.3657 30.6418 31.4961 30.6409 31.6279C30.639 31.8942 30.743 32.1504 30.93 32.34L31.66 33.05ZM47 37H46C45.7348 37 45.4804 37.1054 45.2929 37.2929C45.1054 37.4804 45 37.7348 45 38C45 38.2652 45.1054 38.5196 45.2929 38.7071C45.4804 38.8946 45.7348 39 46 39H47C47.2652 39 47.5196 38.8946 47.7071 38.7071C47.8946 38.5196 48 38.2652 48 38C48 37.7348 47.8946 37.4804 47.7071 37.2929C47.5196 37.1054 47.2652 37 47 37ZM44.36 43C44.17 42.8943 43.9508 42.8534 43.7355 42.8835C43.5202 42.9136 43.3205 43.0131 43.1668 43.1668C43.0131 43.3205 42.9136 43.5202 42.8835 43.7355C42.8534 43.9508 42.8943 44.17 43 44.36L43.71 45.07C43.8974 45.2563 44.1508 45.3608 44.415 45.3608C44.6792 45.3608 44.9326 45.2563 45.12 45.07C45.3063 44.8826 45.4108 44.6292 45.4108 44.365C45.4108 44.1008 45.3063 43.8474 45.12 43.66L44.36 43ZM38 32.5C36.9122 32.5 35.8488 32.8226 34.9444 33.4269C34.0399 34.0313 33.3349 34.8902 32.9187 35.8952C32.5024 36.9002 32.3935 38.0061 32.6057 39.073C32.8179 40.1399 33.3417 41.1199 34.1109 41.8891C34.8801 42.6583 35.8601 43.1821 36.927 43.3943C37.9939 43.6065 39.0998 43.4976 40.1048 43.0813C41.1098 42.6651 41.9687 41.9601 42.5731 41.0556C43.1774 40.1512 43.5 39.0878 43.5 38C43.4974 36.5421 42.917 35.1447 41.8862 34.1138C40.8553 33.083 39.4579 32.5026 38 32.5ZM38 41.5C37.3078 41.5 36.6311 41.2947 36.0555 40.9101C35.4799 40.5256 35.0313 39.9789 34.7664 39.3394C34.5015 38.6999 34.4322 37.9961 34.5673 37.3172C34.7023 36.6382 35.0356 36.0146 35.5251 35.5251C36.0146 35.0356 36.6382 34.7023 37.3172 34.5673C37.9961 34.4322 38.6999 34.5015 39.3394 34.7664C39.9789 35.0313 40.5256 35.4799 40.9101 36.0555C41.2947 36.6311 41.5 37.3078 41.5 38C41.5 38.9283 41.1313 39.8185 40.4749 40.4749C39.8185 41.1313 38.9283 41.5 38 41.5V41.5ZM38 45C37.7348 45 37.4804 45.1054 37.2929 45.2929C37.1054 45.4804 37 45.7348 37 46V47C37 47.2652 37.1054 47.5196 37.2929 47.7071C37.4804 47.8946 37.7348 48 38 48C38.2652 48 38.5196 47.8946 38.7071 47.7071C38.8946 47.5196 39 47.2652 39 47V46C39 45.7348 38.8946 45.4804 38.7071 45.2929C38.5196 45.1054 38.2652 45 38 45Z" fill="#E8890B"/>
</g>
<defs>
<clipPath id="clip0_81_68">
<rect width="75.5938" height="75.5938" fill="white"/>
</clipPath>
</defs>
</svg>
