<svg width="624" height="624" viewBox="0 0 624 624" fill="none" xmlns="http://www.w3.org/2000/svg">
<path d="M300.463 271.202V272.593C300.463 273.009 300.419 273.347 300.333 273.607C300.246 273.858 300.159 274.071 300.073 274.244L292.949 288.908C292.801 289.211 292.593 289.471 292.325 289.688C292.056 289.896 291.696 290 291.246 290H288.919L296.186 275.635C296.35 275.34 296.511 275.072 296.667 274.829C296.831 274.578 297.013 274.339 297.213 274.114H288.217C288.017 274.114 287.844 274.04 287.697 273.893C287.549 273.746 287.476 273.572 287.476 273.373V271.202H300.463ZM306.627 278.027C307.043 277.94 307.441 277.88 307.823 277.845C308.204 277.802 308.572 277.78 308.928 277.78C309.916 277.78 310.787 277.927 311.541 278.222C312.295 278.517 312.927 278.924 313.439 279.444C313.95 279.964 314.336 280.575 314.596 281.277C314.856 281.97 314.986 282.72 314.986 283.526C314.986 284.523 314.808 285.433 314.453 286.256C314.106 287.079 313.621 287.786 312.997 288.375C312.373 288.956 311.632 289.406 310.774 289.727C309.924 290.048 308.997 290.208 307.992 290.208C307.402 290.208 306.843 290.147 306.315 290.026C305.786 289.905 305.288 289.744 304.82 289.545C304.36 289.337 303.931 289.103 303.533 288.843C303.143 288.574 302.792 288.293 302.48 287.998L303.468 286.633C303.676 286.338 303.949 286.191 304.287 286.191C304.503 286.191 304.724 286.26 304.95 286.399C305.175 286.538 305.431 286.689 305.717 286.854C306.011 287.019 306.354 287.17 306.744 287.309C307.142 287.448 307.619 287.517 308.174 287.517C308.763 287.517 309.283 287.422 309.734 287.231C310.184 287.04 310.557 286.776 310.852 286.438C311.155 286.091 311.38 285.684 311.528 285.216C311.684 284.739 311.762 284.224 311.762 283.669C311.762 282.646 311.463 281.849 310.865 281.277C310.275 280.696 309.4 280.406 308.239 280.406C307.346 280.406 306.432 280.571 305.496 280.9L303.494 280.328L305.054 271.202H314.336V272.567C314.336 273.026 314.193 273.399 313.907 273.685C313.621 273.971 313.135 274.114 312.451 274.114H307.29L306.627 278.027ZM326.116 275.752C326.116 276.463 325.994 277.104 325.752 277.676C325.518 278.248 325.201 278.738 324.803 279.145C324.404 279.544 323.94 279.851 323.412 280.068C322.883 280.285 322.333 280.393 321.761 280.393C321.137 280.393 320.56 280.285 320.032 280.068C319.503 279.851 319.044 279.544 318.654 279.145C318.272 278.738 317.973 278.248 317.757 277.676C317.54 277.104 317.432 276.463 317.432 275.752C317.432 275.024 317.54 274.365 317.757 273.776C317.973 273.187 318.272 272.688 318.654 272.281C319.044 271.874 319.503 271.562 320.032 271.345C320.56 271.12 321.137 271.007 321.761 271.007C322.385 271.007 322.961 271.12 323.49 271.345C324.027 271.562 324.491 271.874 324.881 272.281C325.271 272.688 325.574 273.187 325.791 273.776C326.007 274.365 326.116 275.024 326.116 275.752ZM323.646 275.752C323.646 275.249 323.594 274.829 323.49 274.491C323.394 274.153 323.26 273.88 323.087 273.672C322.922 273.464 322.723 273.317 322.489 273.23C322.263 273.135 322.021 273.087 321.761 273.087C321.501 273.087 321.258 273.135 321.033 273.23C320.807 273.317 320.612 273.464 320.448 273.672C320.292 273.88 320.166 274.153 320.071 274.491C319.975 274.829 319.928 275.249 319.928 275.752C319.928 276.237 319.975 276.645 320.071 276.974C320.166 277.295 320.292 277.555 320.448 277.754C320.612 277.953 320.807 278.096 321.033 278.183C321.258 278.27 321.501 278.313 321.761 278.313C322.021 278.313 322.263 278.27 322.489 278.183C322.723 278.096 322.922 277.953 323.087 277.754C323.26 277.555 323.394 277.295 323.49 276.974C323.594 276.645 323.646 276.237 323.646 275.752ZM332.369 271.709C332.481 271.579 332.611 271.462 332.759 271.358C332.915 271.254 333.131 271.202 333.409 271.202H335.749L321.787 289.519C321.674 289.658 321.54 289.775 321.384 289.87C321.228 289.957 321.037 290 320.812 290H318.42L332.369 271.709ZM336.737 285.58C336.737 286.291 336.615 286.932 336.373 287.504C336.139 288.076 335.822 288.566 335.424 288.973C335.025 289.372 334.561 289.684 334.033 289.909C333.504 290.126 332.954 290.234 332.382 290.234C331.758 290.234 331.181 290.126 330.653 289.909C330.124 289.684 329.665 289.372 329.275 288.973C328.893 288.566 328.594 288.076 328.378 287.504C328.161 286.932 328.053 286.291 328.053 285.58C328.053 284.852 328.161 284.193 328.378 283.604C328.594 283.015 328.893 282.516 329.275 282.109C329.665 281.702 330.124 281.39 330.653 281.173C331.181 280.948 331.758 280.835 332.382 280.835C333.006 280.835 333.582 280.948 334.111 281.173C334.648 281.39 335.107 281.702 335.489 282.109C335.879 282.516 336.182 283.015 336.399 283.604C336.624 284.193 336.737 284.852 336.737 285.58ZM334.254 285.58C334.254 285.077 334.206 284.657 334.111 284.319C334.015 283.981 333.881 283.708 333.708 283.5C333.543 283.292 333.344 283.145 333.11 283.058C332.884 282.963 332.642 282.915 332.382 282.915C332.122 282.915 331.879 282.963 331.654 283.058C331.428 283.145 331.233 283.292 331.069 283.5C330.904 283.708 330.774 283.981 330.679 284.319C330.592 284.657 330.549 285.077 330.549 285.58C330.549 286.065 330.592 286.473 330.679 286.802C330.774 287.131 330.904 287.396 331.069 287.595C331.233 287.794 331.428 287.937 331.654 288.024C331.879 288.111 332.122 288.154 332.382 288.154C332.642 288.154 332.884 288.111 333.11 288.024C333.344 287.937 333.543 287.794 333.708 287.595C333.881 287.396 334.015 287.131 334.111 286.802C334.206 286.473 334.254 286.065 334.254 285.58Z" fill="#E2E2E2"/>
<g filter="url(#filter0_iiii_110_2)">
<circle cx="312" cy="312" r="312" fill="#2D3135"/>
</g>
<g filter="url(#filter1_dddd_110_2)">
<circle cx="312" cy="312" r="171" fill="#2D3135"/>
</g>
<defs>
<filter id="filter0_iiii_110_2" x="-6" y="-6.00003" width="638" height="638" filterUnits="userSpaceOnUse" color-interpolation-filters="sRGB">
<feFlood flood-opacity="0" result="BackgroundImageFix"/>
<feBlend mode="normal" in="SourceGraphic" in2="BackgroundImageFix" result="shape"/>
<feColorMatrix in="SourceAlpha" type="matrix" values="0 0 0 0 0 0 0 0 0 0 0 0 0 0 0 0 0 0 127 0" result="hardAlpha"/>
<feOffset dx="-6" dy="-6"/>
<feGaussianBlur stdDeviation="10"/>
<feComposite in2="hardAlpha" operator="arithmetic" k2="-1" k3="1"/>
<feColorMatrix type="matrix" values="0 0 0 0 0.288437 0 0 0 0 0.306719 0 0 0 0 0.325 0 0 0 0.7 0"/>
<feBlend mode="normal" in2="shape" result="effect1_innerShadow_110_2"/>
<feColorMatrix in="SourceAlpha" type="matrix" values="0 0 0 0 0 0 0 0 0 0 0 0 0 0 0 0 0 0 127 0" result="hardAlpha"/>
<feOffset dx="8" dy="8"/>
<feGaussianBlur stdDeviation="15"/>
<feComposite in2="hardAlpha" operator="arithmetic" k2="-1" k3="1"/>
<feColorMatrix type="matrix" values="0 0 0 0 0.137465 0 0 0 0 0.145816 0 0 0 0 0.154167 0 0 0 0.9 0"/>
<feBlend mode="normal" in2="effect1_innerShadow_110_2" result="effect2_innerShadow_110_2"/>
<feColorMatrix in="SourceAlpha" type="matrix" values="0 0 0 0 0 0 0 0 0 0 0 0 0 0 0 0 0 0 127 0" result="hardAlpha"/>
<feOffset dx="2" dy="2"/>
<feGaussianBlur stdDeviation="3"/>
<feComposite in2="hardAlpha" operator="arithmetic" k2="-1" k3="1"/>
<feColorMatrix type="matrix" values="0 0 0 0 0.137255 0 0 0 0 0.145098 0 0 0 0 0.152941 0 0 0 0.8 0"/>
<feBlend mode="normal" in2="effect2_innerShadow_110_2" result="effect3_innerShadow_110_2"/>
<feColorMatrix in="SourceAlpha" type="matrix" values="0 0 0 0 0 0 0 0 0 0 0 0 0 0 0 0 0 0 127 0" result="hardAlpha"/>
<feOffset dx="-2" dy="-2"/>
<feGaussianBlur stdDeviation="2"/>
<feComposite in2="hardAlpha" operator="arithmetic" k2="-1" k3="1"/>
<feColorMatrix type="matrix" values="0 0 0 0 0.290196 0 0 0 0 0.305882 0 0 0 0 0.32549 0 0 0 0.5 0"/>
<feBlend mode="normal" in2="effect3_innerShadow_110_2" result="effect4_innerShadow_110_2"/>
</filter>
<filter id="filter1_dddd_110_2" x="115" y="115" width="406" height="406" filterUnits="userSpaceOnUse" color-interpolation-filters="sRGB">
<feFlood flood-opacity="0" result="BackgroundImageFix"/>
<feColorMatrix in="SourceAlpha" type="matrix" values="0 0 0 0 0 0 0 0 0 0 0 0 0 0 0 0 0 0 127 0" result="hardAlpha"/>
<feOffset dx="-6" dy="-6"/>
<feGaussianBlur stdDeviation="10"/>
<feColorMatrix type="matrix" values="0 0 0 0 0.288437 0 0 0 0 0.306719 0 0 0 0 0.325 0 0 0 0.7 0"/>
<feBlend mode="normal" in2="BackgroundImageFix" result="effect1_dropShadow_110_2"/>
<feColorMatrix in="SourceAlpha" type="matrix" values="0 0 0 0 0 0 0 0 0 0 0 0 0 0 0 0 0 0 127 0" result="hardAlpha"/>
<feOffset dx="8" dy="8"/>
<feGaussianBlur stdDeviation="15"/>
<feColorMatrix type="matrix" values="0 0 0 0 0.137465 0 0 0 0 0.145816 0 0 0 0 0.154167 0 0 0 0.9 0"/>
<feBlend mode="normal" in2="effect1_dropShadow_110_2" result="effect2_dropShadow_110_2"/>
<feColorMatrix in="SourceAlpha" type="matrix" values="0 0 0 0 0 0 0 0 0 0 0 0 0 0 0 0 0 0 127 0" result="hardAlpha"/>
<feOffset dx="2" dy="2"/>
<feGaussianBlur stdDeviation="3"/>
<feColorMatrix type="matrix" values="0 0 0 0 0.137255 0 0 0 0 0.145098 0 0 0 0 0.152941 0 0 0 0.8 0"/>
<feBlend mode="normal" in2="effect2_dropShadow_110_2" result="effect3_dropShadow_110_2"/>
<feColorMatrix in="SourceAlpha" type="matrix" values="0 0 0 0 0 0 0 0 0 0 0 0 0 0 0 0 0 0 127 0" result="hardAlpha"/>
<feOffset dx="-2" dy="-2"/>
<feGaussianBlur stdDeviation="2"/>
<feColorMatrix type="matrix" values="0 0 0 0 0.290196 0 0 0 0 0.305882 0 0 0 0 0.32549 0 0 0 0.5 0"/>
<feBlend mode="normal" in2="effect3_dropShadow_110_2" result="effect4_dropShadow_110_2"/>
<feBlend mode="normal" in="SourceGraphic" in2="effect4_dropShadow_110_2" result="shape"/>
</filter>
</defs>
</svg>
