<svg width="66" height="66" viewBox="0 0 66 66" fill="none" xmlns="http://www.w3.org/2000/svg">
<g filter="url(#filter0_dd_116_40)">
<rect x="6" y="6" width="52" height="52" rx="26" fill="url(#paint0_linear_116_40)"/>
</g>
<path opacity="0.86" d="M37.3544 24.2857H26.6401C24.8655 24.2857 23.4258 25.7254 23.4258 27.5V38.2143C23.4258 39.9888 24.8655 41.4286 26.6401 41.4286H32.5776V34.7879H30.3454V32.1987H32.5776V30.2902C32.5776 28.0804 33.9392 26.875 35.9146 26.875C36.8521 26.875 37.6669 26.942 37.9012 26.9754V29.2857L36.5396 29.2969C35.457 29.2969 35.2561 29.7991 35.2561 30.5469V32.1987H37.8119L37.4771 34.7879H35.2561V41.4286H37.3544C39.1289 41.4286 40.5686 39.9888 40.5686 38.2143V27.5C40.5686 25.7254 39.1289 24.2857 37.3544 24.2857Z" fill="#E2E2E2"/>
<defs>
<filter id="filter0_dd_116_40" x="0" y="0" width="66" height="66" filterUnits="userSpaceOnUse" color-interpolation-filters="sRGB">
<feFlood flood-opacity="0" result="BackgroundImageFix"/>
<feColorMatrix in="SourceAlpha" type="matrix" values="0 0 0 0 0 0 0 0 0 0 0 0 0 0 0 0 0 0 127 0" result="hardAlpha"/>
<feOffset dx="2" dy="2"/>
<feGaussianBlur stdDeviation="3"/>
<feColorMatrix type="matrix" values="0 0 0 0 0.137255 0 0 0 0 0.145098 0 0 0 0 0.152941 0 0 0 0.8 0"/>
<feBlend mode="normal" in2="BackgroundImageFix" result="effect1_dropShadow_116_40"/>
<feColorMatrix in="SourceAlpha" type="matrix" values="0 0 0 0 0 0 0 0 0 0 0 0 0 0 0 0 0 0 127 0" result="hardAlpha"/>
<feOffset dx="-2" dy="-2"/>
<feGaussianBlur stdDeviation="2"/>
<feColorMatrix type="matrix" values="0 0 0 0 0.290196 0 0 0 0 0.305882 0 0 0 0 0.32549 0 0 0 0.5 0"/>
<feBlend mode="normal" in2="effect1_dropShadow_116_40" result="effect2_dropShadow_116_40"/>
<feBlend mode="normal" in="SourceGraphic" in2="effect2_dropShadow_116_40" result="shape"/>
</filter>
<linearGradient id="paint0_linear_116_40" x1="47.9714" y1="51.8714" x2="16.5857" y2="12.1286" gradientUnits="userSpaceOnUse">
<stop offset="0.130754" stop-color="#2D3135"/>
<stop offset="0.827958" stop-color="#35393E"/>
</linearGradient>
</defs>
</svg>
