<svg width="66" height="66" viewBox="0 0 66 66" fill="none" xmlns="http://www.w3.org/2000/svg">
<g filter="url(#filter0_dd_116_43)">
<rect x="6" y="6" width="52" height="52" rx="26" fill="url(#paint0_linear_116_43)"/>
</g>
<path opacity="0.86" d="M34.8544 32.8571C34.8544 34.4308 33.5709 35.7143 31.9972 35.7143C30.4235 35.7143 29.1401 34.4308 29.1401 32.8571C29.1401 31.2835 30.4235 30 31.9972 30C33.5709 30 34.8544 31.2835 34.8544 32.8571ZM36.3945 32.8571C36.3945 30.4241 34.4302 28.4598 31.9972 28.4598C29.5642 28.4598 27.5999 30.4241 27.5999 32.8571C27.5999 35.2902 29.5642 37.2545 31.9972 37.2545C34.4302 37.2545 36.3945 35.2902 36.3945 32.8571ZM37.5999 28.2812C37.5999 27.7121 37.1423 27.2545 36.5731 27.2545C36.0039 27.2545 35.5463 27.7121 35.5463 28.2812C35.5463 28.8504 36.0039 29.308 36.5731 29.308C37.1423 29.308 37.5999 28.8504 37.5999 28.2812ZM31.9972 25.8259C33.2472 25.8259 35.9258 25.7254 37.053 26.1719C37.4436 26.3281 37.7338 26.5179 38.0352 26.8192C38.3365 27.1205 38.5262 27.4107 38.6825 27.8013C39.1289 28.9286 39.0285 31.6071 39.0285 32.8571C39.0285 34.1071 39.1289 36.7857 38.6825 37.9129C38.5262 38.3036 38.3365 38.5938 38.0352 38.8951C37.7338 39.1964 37.4436 39.3862 37.053 39.5424C35.9258 39.9888 33.2472 39.8884 31.9972 39.8884C30.7472 39.8884 28.0686 39.9888 26.9414 39.5424C26.5508 39.3862 26.2606 39.1964 25.9593 38.8951C25.6579 38.5938 25.4682 38.3036 25.3119 37.9129C24.8655 36.7857 24.966 34.1071 24.966 32.8571C24.966 31.6071 24.8655 28.9286 25.3119 27.8013C25.4682 27.4107 25.6579 27.1205 25.9593 26.8192C26.2606 26.5179 26.5508 26.3281 26.9414 26.1719C28.0686 25.7254 30.7472 25.8259 31.9972 25.8259ZM40.5686 32.8571C40.5686 31.6741 40.5798 30.5022 40.5128 29.3192C40.4459 27.9464 40.1334 26.7299 39.1289 25.7254C38.1244 24.721 36.9079 24.4085 35.5352 24.3415C34.3521 24.2746 33.1802 24.2857 31.9972 24.2857C30.8142 24.2857 29.6423 24.2746 28.4593 24.3415C27.0865 24.4085 25.87 24.721 24.8655 25.7254C23.861 26.7299 23.5485 27.9464 23.4816 29.3192C23.4146 30.5022 23.4258 31.6741 23.4258 32.8571C23.4258 34.0402 23.4146 35.2121 23.4816 36.3951C23.5485 37.7679 23.861 38.9844 24.8655 39.9888C25.87 40.9933 27.0865 41.3058 28.4593 41.3728C29.6423 41.4397 30.8142 41.4286 31.9972 41.4286C33.1802 41.4286 34.3521 41.4397 35.5352 41.3728C36.9079 41.3058 38.1244 40.9933 39.1289 39.9888C40.1334 38.9844 40.4459 37.7679 40.5128 36.3951C40.5798 35.2121 40.5686 34.0402 40.5686 32.8571Z" fill="#E2E2E2"/>
<defs>
<filter id="filter0_dd_116_43" x="0" y="0" width="66" height="66" filterUnits="userSpaceOnUse" color-interpolation-filters="sRGB">
<feFlood flood-opacity="0" result="BackgroundImageFix"/>
<feColorMatrix in="SourceAlpha" type="matrix" values="0 0 0 0 0 0 0 0 0 0 0 0 0 0 0 0 0 0 127 0" result="hardAlpha"/>
<feOffset dx="2" dy="2"/>
<feGaussianBlur stdDeviation="3"/>
<feColorMatrix type="matrix" values="0 0 0 0 0.137255 0 0 0 0 0.145098 0 0 0 0 0.152941 0 0 0 0.8 0"/>
<feBlend mode="normal" in2="BackgroundImageFix" result="effect1_dropShadow_116_43"/>
<feColorMatrix in="SourceAlpha" type="matrix" values="0 0 0 0 0 0 0 0 0 0 0 0 0 0 0 0 0 0 127 0" result="hardAlpha"/>
<feOffset dx="-2" dy="-2"/>
<feGaussianBlur stdDeviation="2"/>
<feColorMatrix type="matrix" values="0 0 0 0 0.290196 0 0 0 0 0.305882 0 0 0 0 0.32549 0 0 0 0.5 0"/>
<feBlend mode="normal" in2="effect1_dropShadow_116_43" result="effect2_dropShadow_116_43"/>
<feBlend mode="normal" in="SourceGraphic" in2="effect2_dropShadow_116_43" result="shape"/>
</filter>
<linearGradient id="paint0_linear_116_43" x1="47.9714" y1="51.8714" x2="16.5857" y2="12.1286" gradientUnits="userSpaceOnUse">
<stop offset="0.130754" stop-color="#2D3135"/>
<stop offset="0.827958" stop-color="#35393E"/>
</linearGradient>
</defs>
</svg>
