<svg width="210" height="79" viewBox="0 0 210 79" fill="none" xmlns="http://www.w3.org/2000/svg">
<path fill-rule="evenodd" clip-rule="evenodd" d="M29.4154 36.9705C32.1557 33.4682 36.5439 31.1993 41.4899 31.1993C46.4649 31.1993 50.8754 33.495 53.6125 37.0324C53.4959 37.1462 53.3899 37.2642 53.2938 37.382C52.7924 37.9988 52.4152 38.7934 52.113 39.6003C51.5044 41.2231 51.0402 43.3429 50.6105 45.3278L50.5722 45.5063C50.1434 47.4876 49.7448 49.3303 49.2629 50.6982C49.0464 51.3127 48.8411 51.7472 48.659 52.0254C48.469 51.7449 48.2534 51.3052 48.0253 50.6818C47.5098 49.2747 47.0763 47.3607 46.6167 45.317L46.6018 45.2501V45.25C46.1602 43.2871 45.6917 41.2043 45.1076 39.61C44.8142 38.8091 44.4542 38.0225 43.9832 37.4113C43.5211 36.8116 42.7517 36.1347 41.6266 36.1347C40.5085 36.1347 39.7356 36.8042 39.2667 37.3972C38.7867 38.0045 38.4125 38.7878 38.1042 39.5891C37.4834 41.2026 36.9758 43.3133 36.5034 45.301L36.4546 45.5063C35.9869 47.4753 35.5496 49.3162 35.0532 50.6867C34.8637 51.21 34.6849 51.6083 34.5231 51.8927C34.3649 51.6096 34.1905 51.214 34.0062 50.6951C33.53 49.3538 33.1128 47.5644 32.6648 45.6426L32.5864 45.3063C32.1222 43.3174 31.6185 41.2029 30.9889 39.5843C30.676 38.7801 30.2933 37.9928 29.7982 37.3828C29.686 37.2447 29.5586 37.1045 29.4154 36.9705ZM27.7569 39.6596C27.8874 39.9045 28.0254 40.208 28.1682 40.575C28.7132 41.976 29.175 43.8877 29.6505 45.9249L29.743 46.3219C30.1759 48.1807 30.6263 50.1144 31.1568 51.6083C31.4389 52.4028 31.7796 53.181 32.2178 53.7858C32.6322 54.3578 33.3756 55.0967 34.5186 55.0967C35.6584 55.0967 36.4036 54.3614 36.8208 53.792C37.2627 53.1886 37.609 52.4112 37.8968 51.6162C38.4486 50.0927 38.9184 48.1138 39.368 46.2199V46.2198L39.4368 45.9303C39.9212 43.8918 40.3876 41.9763 40.9286 40.5702C41.1793 39.9187 41.4139 39.4649 41.6182 39.1833C41.8118 39.4625 42.033 39.9091 42.2676 40.5493C42.7832 41.9566 43.2163 43.8705 43.676 45.9142L43.691 45.9811C44.1325 47.9441 44.601 50.027 45.1851 51.6211C45.4785 52.4223 45.8386 53.2089 46.3095 53.8199C46.7718 54.4198 47.541 55.0967 48.666 55.0967C49.797 55.0967 50.5634 54.4136 51.0202 53.8084C51.484 53.1943 51.8327 52.405 52.1144 51.6052C52.6559 50.0687 53.0864 48.0752 53.497 46.1788V46.1787L53.5558 45.9034C53.9978 43.8622 54.422 41.9558 54.946 40.559C55.0594 40.2551 55.1712 39.996 55.2778 39.7784C56.0805 41.5265 56.5257 43.4567 56.5257 45.4857C56.5257 53.3757 49.7942 59.7721 41.4899 59.7721C33.1857 59.7721 26.4539 53.3757 26.4539 45.4857C26.4539 43.4106 26.9195 41.4388 27.7569 39.6596ZM41.4899 28.342C31.5249 28.342 23.4467 36.0175 23.4467 45.4857C23.4467 54.9538 31.5249 62.6292 41.4899 62.6292C51.4551 62.6292 59.5329 54.9538 59.5329 45.4857C59.5329 36.0175 51.4551 28.342 41.4899 28.342ZM41.8336 38.9442C41.8336 38.9445 41.8301 38.9472 41.8231 38.9511C41.8301 38.9458 41.8336 38.9438 41.8336 38.9442ZM41.418 38.9461C41.411 38.9421 41.4075 38.9393 41.4075 38.9389C41.4075 38.9385 41.4111 38.9406 41.418 38.9461ZM48.4373 52.2966C48.4373 52.2966 48.4406 52.2935 48.4471 52.2896C48.4406 52.2949 48.4373 52.2971 48.4373 52.2966ZM48.8746 52.2851C48.8815 52.2891 48.8853 52.2918 48.8853 52.2922C48.8853 52.2926 48.8815 52.2904 48.8746 52.2851ZM34.2105 52.3223C34.2104 52.3218 34.2148 52.3178 34.2234 52.3121C34.2148 52.3196 34.2105 52.3227 34.2105 52.3223ZM34.8195 52.3148C34.8281 52.3205 34.8324 52.3245 34.8324 52.3249C34.8323 52.3254 34.828 52.3227 34.8195 52.3148Z" fill="#81818B"/>
<path d="M69.4958 55.6351L65.1205 41.4144H68.953L71.5481 51.6498L74.5652 41.4144H78.8503L81.868 51.6498L84.493 41.4144H88.3255L83.9197 55.6351H79.9066L76.7078 44.9982L73.5095 55.6351H69.4958Z" fill="#81818B"/>
<path d="M93.9488 55.9793C92.6615 55.9793 91.6052 55.7877 90.7804 55.4055C89.9562 55.0042 89.3424 54.4786 88.9398 53.8287C88.5376 53.1788 88.3365 52.4621 88.3365 51.6785C88.3365 50.3597 88.8794 49.2893 89.9656 48.4674C91.0519 47.6455 92.682 47.2346 94.8544 47.2346H98.6565V46.8905C98.6565 45.9157 98.3646 45.199 97.7813 44.7402C97.198 44.2815 96.4735 44.0522 95.6089 44.0522C94.824 44.0522 94.1399 44.2337 93.5566 44.5969C92.9734 44.9409 92.6111 45.457 92.4704 46.1451H88.6983C88.7991 45.113 89.1613 44.2146 89.7845 43.45C90.4287 42.6855 91.2535 42.1025 92.2588 41.7012C93.2653 41.2807 94.3914 41.0704 95.6388 41.0704C97.7713 41.0704 99.4508 41.5769 100.678 42.5899C101.905 43.603 102.519 45.0366 102.519 46.8905V55.6351H99.2292L98.8675 53.3416C98.425 54.1061 97.8012 54.7366 96.9969 55.2338C96.2121 55.7306 95.1962 55.9793 93.9488 55.9793ZM94.824 53.112C95.9307 53.112 96.7854 52.7678 97.3886 52.0798C98.0123 51.3919 98.405 50.5411 98.5662 49.5282H95.2765C94.2507 49.5282 93.5167 49.7098 93.0736 50.0729C92.6316 50.4168 92.41 50.8472 92.41 51.3631C92.41 51.9175 92.6316 52.3475 93.0736 52.6532C93.5167 52.9589 94.0995 53.112 94.824 53.112Z" fill="#81818B"/>
<path d="M108.599 55.6351L103.107 41.4144H107.15L110.952 52.1661L114.755 41.4144H118.798L113.276 55.6351H108.599Z" fill="#81818B"/>
<path d="M126.562 55.9793C125.054 55.9793 123.716 55.6732 122.549 55.0617C121.383 54.4498 120.468 53.5898 119.803 52.4811C119.139 51.3728 118.808 50.092 118.808 48.6394C118.808 47.1677 119.13 45.8584 119.773 44.7116C120.437 43.5648 121.342 42.676 122.489 42.0452C123.655 41.3954 125.023 41.0704 126.593 41.0704C128.061 41.0704 129.359 41.3762 130.486 41.9879C131.612 42.5995 132.487 43.4405 133.111 44.5109C133.754 45.5621 134.077 46.7376 134.077 48.0373C134.077 48.2476 134.066 48.4674 134.046 48.6967C134.046 48.9262 134.036 49.165 134.016 49.4135H122.64C122.72 50.5221 123.123 51.3919 123.847 52.0228C124.591 52.6532 125.487 52.9687 126.533 52.9687C127.317 52.9687 127.971 52.8063 128.494 52.4811C129.037 52.1373 129.439 51.6976 129.701 51.1622H133.623C133.342 52.0608 132.869 52.8828 132.205 53.6283C131.561 54.3543 130.757 54.9277 129.791 55.3484C128.846 55.7687 127.769 55.9793 126.562 55.9793ZM126.593 44.0522C125.648 44.0522 124.812 44.3102 124.088 44.8262C123.364 45.3232 122.901 46.0878 122.7 47.1199H130.153C130.093 46.1833 129.731 45.4379 129.067 44.8836C128.403 44.3293 127.579 44.0522 126.593 44.0522Z" fill="#81818B"/>
<path d="M136.118 55.635V34.9922H139.98V55.635H136.118Z" fill="#81818B"/>
<path d="M149.991 55.9793C148.483 55.9793 147.145 55.6732 145.978 55.0617C144.812 54.4498 143.897 53.5898 143.233 52.4811C142.568 51.3728 142.237 50.092 142.237 48.6394C142.237 47.1677 142.559 45.8584 143.202 44.7116C143.866 43.5648 144.771 42.676 145.918 42.0452C147.085 41.3954 148.453 41.0704 150.022 41.0704C151.49 41.0704 152.788 41.3762 153.915 41.9879C155.041 42.5995 155.917 43.4405 156.54 44.5109C157.183 45.5621 157.506 46.7376 157.506 48.0373C157.506 48.2476 157.495 48.4674 157.475 48.6967C157.475 48.9262 157.465 49.165 157.445 49.4135H146.069C146.149 50.5221 146.552 51.3919 147.276 52.0228C148.02 52.6532 148.916 52.9687 149.962 52.9687C150.746 52.9687 151.4 52.8063 151.923 52.4811C152.466 52.1373 152.868 51.6976 153.13 51.1622H157.053C156.771 52.0608 156.298 52.8828 155.635 53.6283C154.99 54.3543 154.186 54.9277 153.22 55.3484C152.275 55.7687 151.199 55.9793 149.991 55.9793ZM150.022 44.0522C149.077 44.0522 148.242 44.3102 147.517 44.8262C146.793 45.3232 146.331 46.0878 146.129 47.1199H153.582C153.522 46.1833 153.16 45.4379 152.496 44.8836C151.832 44.3293 151.008 44.0522 150.022 44.0522Z" fill="#81818B"/>
<path d="M165.733 55.9793C164.405 55.9793 163.238 55.7784 162.233 55.3772C161.226 54.9564 160.422 54.3831 159.818 53.6566C159.215 52.9306 158.853 52.0896 158.732 51.134H162.625C162.745 51.6878 163.068 52.1661 163.591 52.5674C164.133 52.9496 164.827 53.1408 165.672 53.1408C166.517 53.1408 167.131 52.9784 167.513 52.6532C167.915 52.3285 168.117 51.9555 168.117 51.5352C168.117 50.9234 167.835 50.5124 167.272 50.3022C166.709 50.0729 165.924 49.8532 164.918 49.6429C164.275 49.5091 163.621 49.3466 162.957 49.1555C162.293 48.9644 161.68 48.7254 161.116 48.4388C160.573 48.1329 160.13 47.7506 159.788 47.2919C159.446 46.814 159.276 46.2311 159.276 45.543C159.276 44.2815 159.798 43.2207 160.845 42.3606C161.911 41.5005 163.399 41.0704 165.31 41.0704C167.081 41.0704 168.489 41.4622 169.535 42.2459C170.601 43.0296 171.235 44.1095 171.436 45.4857H167.785C167.563 44.4344 166.728 43.9088 165.281 43.9088C164.556 43.9088 163.993 44.0426 163.591 44.3102C163.208 44.5778 163.017 44.9122 163.017 45.3136C163.017 45.7342 163.309 46.0686 163.892 46.3171C164.476 46.5656 165.25 46.7949 166.216 47.0052C167.261 47.2346 168.217 47.4926 169.082 47.7793C169.967 48.0469 170.671 48.4579 171.195 49.0122C171.718 49.5473 171.979 50.3212 171.979 51.3343C171.999 52.2139 171.757 53.0067 171.255 53.7141C170.752 54.4211 170.028 54.9754 169.082 55.3772C168.137 55.7784 167.02 55.9793 165.733 55.9793Z" fill="#81818B"/>
<path d="M180.379 55.9793C179.052 55.9793 177.885 55.7784 176.879 55.3772C175.873 54.9564 175.069 54.3831 174.465 53.6566C173.862 52.9306 173.499 52.0896 173.379 51.134H177.272C177.392 51.6878 177.714 52.1661 178.237 52.5674C178.78 52.9496 179.474 53.1408 180.319 53.1408C181.164 53.1408 181.778 52.9784 182.16 52.6532C182.562 52.3285 182.764 51.9555 182.764 51.5352C182.764 50.9234 182.482 50.5124 181.918 50.3022C181.355 50.0729 180.571 49.8532 179.565 49.6429C178.921 49.5091 178.267 49.3466 177.603 49.1555C176.94 48.9644 176.326 48.7254 175.763 48.4388C175.22 48.1329 174.777 47.7506 174.435 47.2919C174.093 46.814 173.922 46.2311 173.922 45.543C173.922 44.2815 174.445 43.2207 175.491 42.3606C176.558 41.5005 178.046 41.0704 179.957 41.0704C181.727 41.0704 183.135 41.4622 184.182 42.2459C185.247 43.0296 185.881 44.1095 186.083 45.4857H182.431C182.21 44.4344 181.375 43.9088 179.927 43.9088C179.202 43.9088 178.639 44.0426 178.237 44.3102C177.855 44.5778 177.664 44.9122 177.664 45.3136C177.664 45.7342 177.955 46.0686 178.539 46.3171C179.122 46.5656 179.896 46.7949 180.862 47.0052C181.908 47.2346 182.864 47.4926 183.729 47.7793C184.614 48.0469 185.318 48.4579 185.841 49.0122C186.364 49.5473 186.626 50.3212 186.626 51.3343C186.646 52.2139 186.404 53.0067 185.901 53.7141C185.398 54.4211 184.675 54.9754 183.729 55.3772C182.783 55.7784 181.667 55.9793 180.379 55.9793Z" fill="#81818B"/>
</svg>
