<svg width="94" height="94" viewBox="0 0 94 94" fill="none" xmlns="http://www.w3.org/2000/svg">
<g filter="url(#filter0_dd_115_35)">
<rect x="6" y="6" width="80" height="80" rx="40" fill="#2D3135"/>
</g>
<g filter="url(#filter1_i_115_35)">
<circle cx="45.4286" cy="46" r="37.1429" fill="url(#paint0_linear_115_35)"/>
</g>
<path d="M35.7143 42.5714C33.8286 42.5714 32.2858 44.1143 32.2858 46C32.2858 47.8857 33.8286 49.4286 35.7143 49.4286C37.6001 49.4286 39.1429 47.8857 39.1429 46C39.1429 44.1143 37.6001 42.5714 35.7143 42.5714ZM56.2858 42.5714C54.4001 42.5714 52.8572 44.1143 52.8572 46C52.8572 47.8857 54.4001 49.4286 56.2858 49.4286C58.1715 49.4286 59.7143 47.8857 59.7143 46C59.7143 44.1143 58.1715 42.5714 56.2858 42.5714ZM46.0001 42.5714C44.1143 42.5714 42.5715 44.1143 42.5715 46C42.5715 47.8857 44.1143 49.4286 46.0001 49.4286C47.8858 49.4286 49.4286 47.8857 49.4286 46C49.4286 44.1143 47.8858 42.5714 46.0001 42.5714Z" fill="#E2E2E2"/>
<defs>
<filter id="filter0_dd_115_35" x="0" y="0" width="94" height="94" filterUnits="userSpaceOnUse" color-interpolation-filters="sRGB">
<feFlood flood-opacity="0" result="BackgroundImageFix"/>
<feColorMatrix in="SourceAlpha" type="matrix" values="0 0 0 0 0 0 0 0 0 0 0 0 0 0 0 0 0 0 127 0" result="hardAlpha"/>
<feOffset dx="2" dy="2"/>
<feGaussianBlur stdDeviation="3"/>
<feColorMatrix type="matrix" values="0 0 0 0 0.137255 0 0 0 0 0.145098 0 0 0 0 0.152941 0 0 0 0.8 0"/>
<feBlend mode="normal" in2="BackgroundImageFix" result="effect1_dropShadow_115_35"/>
<feColorMatrix in="SourceAlpha" type="matrix" values="0 0 0 0 0 0 0 0 0 0 0 0 0 0 0 0 0 0 127 0" result="hardAlpha"/>
<feOffset dx="-2" dy="-2"/>
<feGaussianBlur stdDeviation="2"/>
<feColorMatrix type="matrix" values="0 0 0 0 0.290196 0 0 0 0 0.305882 0 0 0 0 0.32549 0 0 0 0.5 0"/>
<feBlend mode="normal" in2="effect1_dropShadow_115_35" result="effect2_dropShadow_115_35"/>
<feBlend mode="normal" in="SourceGraphic" in2="effect2_dropShadow_115_35" result="shape"/>
</filter>
<filter id="filter1_i_115_35" x="8.28577" y="8.85715" width="76.2858" height="76.2857" filterUnits="userSpaceOnUse" color-interpolation-filters="sRGB">
<feFlood flood-opacity="0" result="BackgroundImageFix"/>
<feBlend mode="normal" in="SourceGraphic" in2="BackgroundImageFix" result="shape"/>
<feColorMatrix in="SourceAlpha" type="matrix" values="0 0 0 0 0 0 0 0 0 0 0 0 0 0 0 0 0 0 127 0" result="hardAlpha"/>
<feOffset dx="2" dy="2"/>
<feGaussianBlur stdDeviation="5"/>
<feComposite in2="hardAlpha" operator="arithmetic" k2="-1" k3="1"/>
<feColorMatrix type="matrix" values="0 0 0 0 0.137255 0 0 0 0 0.145098 0 0 0 0 0.152941 0 0 0 1 0"/>
<feBlend mode="normal" in2="shape" result="effect1_innerShadow_115_35"/>
</filter>
<linearGradient id="paint0_linear_115_35" x1="67.5375" y1="73.415" x2="26.5624" y2="15.3424" gradientUnits="userSpaceOnUse">
<stop stop-color="#1F2225"/>
<stop offset="0.546875" stop-color="#212528" stop-opacity="0.19"/>
</linearGradient>
</defs>
</svg>
